<svg width="622" height="395" viewBox="0 0 622 395" fill="none" xmlns="http://www.w3.org/2000/svg">
<path d="M288.359 0C300.405 0 306.569 6.59169 306.569 6.59169L303.097 11.8363C303.097 11.8363 297.287 6.37899 288.642 6.37899C277.447 6.37899 270.149 14.884 270.149 25.516C270.149 36.2188 277.589 45.291 288.713 45.291C298.137 45.291 304.16 38.7702 304.16 38.7702L307.915 43.8031C307.915 43.8031 301.042 51.7409 288.501 51.7409C273.479 51.7409 262.922 40.2582 262.922 25.5869C262.921 11.0573 273.833 0 288.359 0Z" fill="white"/>
<path d="M0 0.850766H29.0509V6.94617H7.01487V22.6101H24.941V28.7055H7.01487V44.7947H30.2557V50.8902H0V0.850766Z" fill="white"/>
<path d="M0.763916 69.5946H8.56629V94.034H37.4124V69.5946H45.2148V125.254H37.4124V100.815H8.56629V125.254H0.763916V69.5946Z" fill="white"/>
<path d="M48.0691 305.792H1.93823V392.728H7.55748V351.994H42.5811V347.026H7.55748V310.76H48.0691V305.792Z" fill="white"/>
<path fill-rule="evenodd" clip-rule="evenodd" d="M170.128 348.639C170.128 323.677 149.349 304.303 123.866 304.303C98.3825 304.303 77.6039 323.677 77.6039 348.639C77.6039 374.223 98.3825 394.218 123.866 394.218C149.349 394.218 170.128 374.223 170.128 348.639ZM164.247 348.639C164.247 371.49 146.213 389.125 123.866 389.125C101.519 389.125 83.4847 371.49 83.4847 348.639C83.4847 326.408 101.519 309.393 123.866 309.393C146.213 309.393 164.247 326.409 164.247 348.639Z" fill="white"/>
<path fill-rule="evenodd" clip-rule="evenodd" d="M235.731 305.792H208.941V392.727H214.561V354.227H240.828L262.521 392.727H269.186L248.668 356.588C247.492 354.477 246.577 353.482 246.577 353.482V353.234C257.293 350.998 264.873 341.684 264.873 329.265C264.873 319.329 259.777 312.002 252.197 308.4C248.539 306.662 244.226 305.792 235.731 305.792ZM258.992 329.265C258.992 341.064 251.413 349.259 239.39 349.259H214.56V310.76H235.469C242.787 310.76 245.662 311.382 248.276 312.498C254.941 315.354 258.992 321.565 258.992 329.265Z" fill="white"/>
<path d="M360.662 305.792H355.042V392.727H404.31V387.759H360.662V305.792Z" fill="white"/>
<path d="M446.128 305.792H440.508V392.727H446.128V305.792Z" fill="white"/>
<path d="M535.513 305.792H489.382V392.728H495.002V351.994H530.024V347.026H495.002V310.76H535.513V305.792Z" fill="white"/>
<path d="M618.889 305.792H568.838V392.728H621.373V387.76H574.458V351.371H610.918V346.403H574.458V310.76H618.889V305.792Z" fill="white"/>
<path d="M65.1254 163.94H1.48926V283.859H9.24088V227.668H57.5531V220.817H9.24088V170.793H65.1254V163.94Z" fill="white"/>
<path fill-rule="evenodd" clip-rule="evenodd" d="M238.904 223.044C238.904 188.61 210.241 161.885 175.087 161.885C139.934 161.885 111.271 188.61 111.271 223.044C111.271 258.334 139.934 285.916 175.087 285.916C210.241 285.916 238.904 258.334 238.904 223.044ZM230.792 223.043C230.792 254.565 205.914 278.892 175.087 278.892C144.261 278.892 119.383 254.565 119.384 223.043C119.384 192.378 144.261 168.908 175.087 168.908C205.915 168.908 230.792 192.378 230.792 223.043Z" fill="white"/>
<path fill-rule="evenodd" clip-rule="evenodd" d="M329.394 163.94H292.439V283.86H300.19V230.753H336.424L366.35 283.86H375.543L347.24 234.008C345.618 231.095 344.357 229.725 344.357 229.725V229.382C359.138 226.298 369.594 213.45 369.594 196.319C369.594 182.613 362.563 172.506 352.108 167.538C347.061 165.14 341.113 163.94 329.394 163.94ZM361.483 196.319C361.483 212.594 351.025 223.901 334.442 223.901H300.19V170.794H329.032C339.129 170.794 343.094 171.65 346.699 173.192C355.894 177.133 361.483 185.698 361.483 196.319Z" fill="white"/>
<path fill-rule="evenodd" clip-rule="evenodd" d="M114.735 109.251H93.7712L88.2543 125.255H80.2148L100.233 69.5955H108.43L128.448 125.255H120.33L114.735 109.251ZM104.253 77.2419C104.253 77.2419 102.992 82.2878 102.046 85.1255L95.8195 102.785H112.685L106.537 85.1255C105.592 82.2878 104.409 77.2419 104.409 77.2419H104.253Z" fill="white"/>
<path fill-rule="evenodd" clip-rule="evenodd" d="M163.447 69.5946H183.782C193.948 69.5946 201.278 76.4532 201.278 87.0178C201.278 97.5815 193.948 104.677 183.782 104.677H171.25V125.254H163.447V69.5946ZM182.52 97.8974C189.219 97.8974 193.317 93.7198 193.317 87.0178C193.317 80.3158 189.219 76.3745 182.599 76.3745H171.249V97.8974H182.52Z" fill="white"/>
<path fill-rule="evenodd" clip-rule="evenodd" d="M238.089 69.5946H258.423C268.59 69.5946 275.92 76.4532 275.92 87.0178C275.92 97.5815 268.59 104.677 258.423 104.677H245.892V125.254H238.089V69.5946ZM257.163 97.8974C263.862 97.8974 267.96 93.7198 267.96 87.0178C267.96 80.3158 263.862 76.3745 257.241 76.3745H245.892V97.8974H257.163Z" fill="white"/>
<path d="M312.732 69.5946H320.534V125.254H312.732V69.5946Z" fill="white"/>
<path d="M362.467 69.5946H370.19L394.937 105.781C396.987 108.777 399.587 113.823 399.587 113.823H399.745C399.745 113.823 399.193 108.857 399.193 105.781V69.5946H406.996V125.254H399.35L374.524 89.1465C372.474 86.0716 369.876 81.0265 369.876 81.0265H369.716C369.716 81.0265 370.269 85.9937 370.269 89.1465V125.254H362.467V69.5946Z" fill="white"/>
<path d="M448.932 69.5946H481.246V76.3745H456.733V93.7977H476.674V100.578H456.733V118.474H482.585V125.254H448.932V69.5946Z" fill="white"/>
<path d="M60.4336 0.850766L75.243 25.0915L59.4422 50.891H67.3067L76.377 35.5107C78.0062 32.7466 79.3529 29.7698 79.3529 29.7698H79.4946C79.4946 29.7698 81.0539 32.6757 82.6831 35.5107L91.7525 50.891H99.6888L83.888 25.0915L98.6956 0.850766H90.6185L82.7531 14.3886C81.1239 17.1527 79.7064 20.3422 79.7064 20.3422H79.5646C79.5646 20.3422 77.9354 17.0827 76.3761 14.3886L68.5116 0.850766H60.4336Z" fill="white"/>
<path d="M161.185 0.850766H132.134V50.8902H162.39V44.7947H139.149V28.7055H157.075V22.6101H139.149V6.94617H161.185V0.850766Z" fill="white"/>
<path fill-rule="evenodd" clip-rule="evenodd" d="M212.124 0.850766H196.819V50.891H203.834V30.9742H214.533L225.09 50.891H233.026L222.398 31.4705C221.477 29.8407 220.91 29.2026 220.91 29.2026V29.0608C226.365 27.2884 229.908 21.902 229.908 15.523C229.908 8.93129 226.578 3.89934 221.476 1.98512C219.564 1.27615 217.367 0.850766 212.124 0.850766ZM222.753 15.8066C222.753 21.4057 219.351 24.8788 213.896 24.8788H203.835V6.94705H211.912C215.809 6.94705 217.438 7.37155 218.785 8.08053C221.336 9.49847 222.753 12.1208 222.753 15.8066Z" fill="white"/>
<path d="M341.565 0.850766H348.579V50.891H341.565V0.850766Z" fill="white"/>
<path d="M386.411 39.8337C386.411 39.8337 391.725 45.2201 399.165 45.2201C403.842 45.2201 407.81 42.5978 407.81 37.8495C407.81 32.8997 402.762 30.6965 397.274 28.3013C390.737 25.4488 383.577 22.324 383.577 13.9632C383.577 6.16718 390.309 0 399.732 0C409.014 0 413.903 5.03282 413.903 5.03282L410.715 10.8446C410.715 10.8446 406.109 6.52166 399.732 6.52166C394.419 6.52166 390.662 9.85295 390.662 13.8223C390.662 18.4168 395.439 20.4265 400.751 22.6615C407.403 25.4604 414.895 28.6125 414.895 37.6368C414.895 45.3628 408.943 51.7418 399.022 51.7418C388.394 51.7418 382.443 45.1501 382.443 45.1501L386.411 39.8337Z" fill="white"/>
<path d="M449.041 0.850766H478.092V6.94617H456.056V22.6101H473.981V28.7055H456.056V44.7947H479.297V50.8902H449.041V0.850766Z" fill="white"/>
<path d="M547.522 0.850766H554.537V50.891H547.522V0.850766Z" fill="white"/>
<path d="M592.369 39.8337C592.369 39.8337 597.682 45.2201 605.123 45.2201C609.799 45.2201 613.767 42.5978 613.767 37.8495C613.767 32.8997 608.719 30.6965 603.23 28.3013C596.694 25.4488 589.534 22.324 589.534 13.9632C589.534 6.16718 596.265 0 605.691 0C614.972 0 619.861 5.03282 619.861 5.03282L616.672 10.8446C616.672 10.8446 612.066 6.52166 605.69 6.52166C600.375 6.52166 596.62 9.85295 596.62 13.8223C596.62 18.4168 601.397 20.4265 606.708 22.6615C613.361 25.4604 620.852 28.6125 620.852 37.6368C620.852 45.3628 614.901 51.7418 604.98 51.7418C594.352 51.7418 588.4 45.1501 588.4 45.1501L592.369 39.8337Z" fill="white"/>
<path d="M473.735 140.935H495.325V208.993H575.145V140.935H596.735V295.935H575.145V227.876H495.325V295.935H473.735V140.935Z" fill="white"/>
<path d="M535.286 118.624C527.031 118.624 521.138 112.586 521.138 112.586L516.735 118.546C516.735 118.546 523.338 125.935 535.128 125.935C546.133 125.935 552.735 118.784 552.735 110.124C552.735 100.008 544.424 96.4744 537.045 93.337C531.153 90.8317 525.854 88.5789 525.854 83.4287C525.854 78.9792 530.019 75.245 535.915 75.245C542.988 75.245 548.098 80.0909 548.098 80.0909L551.636 73.5761C551.636 73.5761 546.212 67.9346 535.916 67.9346C525.46 67.9346 517.993 74.8477 517.993 83.5867C517.993 92.9587 525.936 96.4615 533.186 99.659C539.275 102.344 544.875 104.813 544.875 110.362C544.875 115.685 540.473 118.624 535.286 118.624Z" fill="white"/>
<path d="M590.138 112.586C590.138 112.586 596.031 118.624 604.286 118.624C609.473 118.624 613.875 115.685 613.875 110.362C613.875 104.813 608.275 102.344 602.186 99.659C594.936 96.4615 586.993 92.9587 586.993 83.5867C586.993 74.8477 594.46 67.9346 604.916 67.9346C615.212 67.9346 620.636 73.5761 620.636 73.5761L617.098 80.0909C617.098 80.0909 611.988 75.245 604.915 75.245C599.019 75.245 594.854 78.9792 594.854 83.4287C594.854 88.5789 600.153 90.8317 606.045 93.337C613.424 96.4744 621.735 100.008 621.735 110.124C621.735 118.784 615.133 125.935 604.128 125.935C592.338 125.935 585.735 118.546 585.735 118.546L590.138 112.586Z" fill="white"/>
</svg>
