<svg width="80" height="30" viewBox="0 0 80 30" fill="none" xmlns="http://www.w3.org/2000/svg">
<path d="M18.496 24.8741L17.6768 26.6436C17.6368 26.7321 17.5912 26.8478 17.5408 26.9833C17.4896 26.843 17.4432 26.7282 17.4024 26.6388L16.5656 24.8741H15.548L17.0832 28.0168V29.8437H17.9856L17.984 27.9777L19.4512 24.8733H18.496V24.8741ZM12.4016 24.9236H10.9744V29.7951H12.4016C13.7736 29.7951 14.6944 28.815 14.6944 27.3589C14.6944 25.902 13.7736 24.9236 12.4016 24.9236ZM12.3584 28.9705H11.7696V25.7481H12.3584C13.336 25.7481 13.8744 26.3199 13.8744 27.3597C13.8744 28.3988 13.336 28.9705 12.3584 28.9705ZM7.1936 24.8119C5.8976 24.8119 4.92 25.9068 4.92 27.3597C4.92 28.811 5.8976 29.9059 7.1936 29.9059C8.4864 29.9059 9.4616 28.811 9.4616 27.3597C9.4616 25.9068 8.4864 24.8119 7.1936 24.8119ZM7.1936 29.0343C6.376 29.0343 5.7808 28.3302 5.7808 27.3597C5.7808 26.3893 6.3752 25.6835 7.1936 25.6835C8.0088 25.6835 8.6008 26.3893 8.6008 27.3597C8.6008 28.3302 8.0088 29.0343 7.1936 29.0343ZM77.26 0H70.0264V0.87398H77.26V0ZM2.572 5.87783H11.0416V3.46721H0V20.454H2.572V12.8394H9.8232V10.4303H2.572V5.87783ZM2.544 27.2385C2.8424 27.1651 3.0616 26.9443 3.1552 26.8039C3.2728 26.6261 3.3328 26.4212 3.3328 26.1915C3.3328 25.7457 3.1736 25.4204 2.8464 25.1979C2.5168 24.9738 2.152 24.8598 1.0688 24.8598H0.1552V29.8453H0.1784C0.336 29.8453 0.4936 29.8469 0.648 29.8501C0.7984 29.8501 0.9456 29.8517 1.0904 29.8517C1.9704 29.8517 2.6032 29.7927 3.0352 29.4984C3.3776 29.2632 3.5432 28.9115 3.5432 28.4203C3.5432 28.1508 3.4712 27.9139 3.3304 27.7162C3.2104 27.5463 2.8976 27.3087 2.544 27.2385ZM1.0168 25.536H1.16C1.4632 25.536 1.9216 25.536 2.1864 25.6811C2.4784 25.8382 2.5016 26.15 2.5016 26.2417C2.5016 26.7258 2.044 26.9443 1.0176 26.9475V25.536H1.0168ZM1.5136 29.1635H1.0184V27.6093H1.3376C1.8136 27.6093 2.6112 27.7138 2.6112 28.4163C2.612 29.0901 1.8432 29.1635 1.5136 29.1635ZM25.004 24.9036H23.3672V29.9003H24.1832V28.1946H25.004C26.0064 28.1946 26.628 27.5639 26.628 26.5455C26.628 25.5177 26.0208 24.9036 25.004 24.9036ZM24.9792 27.3502H24.1832V25.7473H24.9792C25.5312 25.7473 25.8008 26.0089 25.8008 26.5447C25.8008 27.079 25.524 27.3502 24.9792 27.3502ZM52.2056 13.215C53.3384 12.9717 54.2504 12.4191 54.9424 11.5539C55.6328 10.6879 55.9792 9.65365 55.9792 8.45033C55.9792 6.9105 55.4272 5.6713 54.324 4.73193C53.3232 3.88825 51.6976 3.46642 49.4456 3.46642H46.1168V20.454H48.6888V13.5004H49.4672L54.336 20.454H57.4824L52.2056 13.215ZM48.688 11.2676V5.87783H49.92C52.2888 5.87783 53.4728 6.74623 53.4728 8.48462C53.4728 10.3394 52.2552 11.2676 49.82 11.2676H48.688ZM68.9296 27.642C68.9296 27.7122 68.9328 27.949 68.9368 28.028C68.8912 27.9674 68.8464 27.9084 68.8048 27.8581L66.4136 24.9611H66.1392V29.9498H67.0144V27.154C67.0144 27.079 67.0112 26.9985 67.0072 26.9203C67.0544 26.9809 67.1016 27.0415 67.1448 27.095L69.5352 30H69.804V24.9212H68.9296V27.642ZM29.2584 27.8071H31.072V26.977H29.2584V25.7481H31.304V24.9036H28.444V29.9003H31.3928V29.0543H29.2592V27.8071H29.2584ZM77.3176 20.454H79.8904V3.46721H77.3176V10.1122H69.968V3.46721H67.3968V20.454H69.968V12.522H77.3184V20.454H77.3176ZM62.3464 24.9611L60.4136 29.9498H61.3368L61.6776 28.9936H63.2576L63.5992 29.9498H64.5744L62.5952 24.9611H62.3464ZM61.9784 28.1635L62.372 27.0511C62.3992 26.9778 62.4288 26.886 62.4616 26.7784C62.4904 26.8733 62.5216 26.9698 62.5496 27.0511L62.944 28.1635H61.9784ZM74.9296 28.386C74.6408 28.8685 74.248 29.1037 73.7304 29.1037C72.8984 29.1037 72.2944 28.3876 72.2944 27.4012C72.2944 26.4188 72.8984 25.7051 73.7304 25.7051C74.2304 25.7051 74.6224 25.9307 74.8672 26.3574L74.9088 26.4323L75.544 25.918L75.4976 25.8382C75.1072 25.1796 74.5128 24.8462 73.7304 24.8462C72.44 24.8462 71.4664 25.9443 71.4664 27.4004C71.4664 28.8597 72.44 29.9609 73.7304 29.9609C74.512 29.9609 75.1608 29.5837 75.56 28.8972L75.6072 28.8174L74.972 28.3142L74.9296 28.386ZM77.868 29.0543V27.8071H79.6816V26.977H77.868V25.7481H79.9128V24.9036H77.0536V29.9003H80V29.0543H77.868ZM56.628 27.41L54.6512 24.9619H54.3912V29.9506H55.2848V27.3103C55.2848 27.2497 55.2832 27.1827 55.2816 27.1141C55.3224 27.1763 55.3648 27.2353 55.404 27.2887L56.516 28.7983H56.7144L57.824 27.2919C57.8632 27.2425 57.9072 27.1811 57.9568 27.1109C57.9544 27.1811 57.9536 27.2481 57.9536 27.3103V29.9506H58.8464V24.9619H58.5864L56.628 27.41ZM36.2384 27.2959C36.464 27.036 36.5784 26.721 36.5784 26.3597C36.5784 25.8988 36.3952 25.5217 36.036 25.2402C35.7112 24.9882 35.1768 24.8598 34.4496 24.8598H33.3544V29.9434H34.228V27.8796H34.4456L36.0144 29.9434H37.0864L35.3792 27.7879C35.7312 27.7114 36.02 27.5463 36.2384 27.2959ZM34.2272 27.1731V25.6189H34.6024C35.3584 25.6189 35.7256 25.8653 35.7256 26.3709C35.7256 26.9116 35.3472 27.1731 34.5704 27.1731H34.2272ZM33.14 5.74466C31.6224 4.01425 29.8024 3.14824 27.6808 3.14824C25.5328 3.14824 23.6944 4.00627 22.164 5.72234C20.6272 7.4384 19.8584 9.49257 19.8584 11.8833C19.8584 14.6041 20.7008 16.8042 22.3856 18.4836C23.916 20.0019 25.6424 20.7618 27.5656 20.7618C29.7384 20.7618 31.5944 19.907 33.1304 18.1981C34.6608 16.4972 35.4256 14.4239 35.4256 11.9829C35.4248 9.55477 34.6632 7.47588 33.14 5.74466ZM31.4272 16.364C30.3856 17.5569 29.1104 18.1534 27.5952 18.1534C26.2 18.1534 24.9688 17.5681 23.9032 16.3967C22.8312 15.2245 22.296 13.7301 22.296 11.912C22.296 10.1792 22.8128 8.72385 23.8472 7.54525C24.8816 6.3523 26.1488 5.75583 27.6512 5.75583C29.1592 5.75583 30.4232 6.3523 31.4448 7.54525C32.4736 8.73183 32.988 10.2015 32.988 11.9542C32.988 13.687 32.468 15.1575 31.4272 16.364ZM45.4616 24.851C44.1664 24.851 43.1888 25.9459 43.1888 27.3988C43.1888 28.8501 44.1664 29.945 45.4616 29.945C46.7536 29.945 47.7288 28.8501 47.7288 27.3988C47.7288 25.9459 46.7536 24.851 45.4616 24.851ZM45.4616 29.0726C44.644 29.0726 44.0488 28.3685 44.0488 27.398C44.0488 26.4275 44.6432 25.7218 45.4616 25.7218C46.2768 25.7218 46.868 26.4275 46.868 27.398C46.868 28.3685 46.2768 29.0726 45.4616 29.0726ZM38.7008 29.9003H39.5576V27.6867H41.8464V26.9419H39.5576V25.6628H42.2312V24.9196H38.7008V29.9003ZM52.0056 27.2959C52.2304 27.036 52.3448 26.721 52.3448 26.3597C52.3448 25.8988 52.1624 25.5217 51.8024 25.2402C51.4784 24.9882 50.944 24.8598 50.2168 24.8598H49.12V29.9434H49.9944V27.8796H50.212L51.7808 29.9434H52.852L51.1456 27.7879C51.4984 27.7114 51.7872 27.5463 52.0056 27.2959ZM49.9944 27.1731V25.6189H50.3688C51.1256 25.6189 51.492 25.8653 51.492 26.3709C51.492 26.9116 51.1144 27.1731 50.3368 27.1731H49.9944Z" fill="#413D3C"/>
</svg>
